<svg xmlns="http://www.w3.org/2000/svg" width="277" height="227" viewBox="0 0 277 227" version="1.1">
	<path d="M 99.500 5.038 C 59.140 7.722, 25.486 16.848, 15.965 27.693 C 12.296 31.871, 11.947 37.392, 15.099 41.398 C 21.368 49.368, 47.312 55.359, 86.500 57.885 C 126.691 60.475, 122.631 60.476, 124.672 57.881 C 125.677 56.603, 128.353 53.632, 130.618 51.278 C 135.513 46.194, 139.318 45.650, 143.694 49.411 C 146.175 51.544, 146.558 52.672, 147 59.161 L 147.500 66.500 153.874 68.682 C 162.208 71.535, 165.431 74.757, 168.105 82.910 C 170.780 91.066, 170.860 91.166, 179.058 96.469 C 186.515 101.293, 187.745 102.655, 186.113 104.287 C 185.501 104.899, 184.984 106.773, 184.965 108.450 C 184.902 113.848, 180.309 119.075, 173 122.067 C 167.683 124.244, 152.688 123.675, 136.500 120.682 C 114.577 116.629, 104.460 115.717, 87.276 116.242 C 75.123 116.613, 70.065 117.190, 65.252 118.756 C 52.032 123.057, 44.351 130.585, 41.374 142.160 C 39.467 149.572, 40.380 158.171, 44.635 172.891 C 48.420 185.984, 60.772 216.266, 63.136 218.250 C 65.007 219.820, 67.939 220, 91.611 220 C 116.083 220, 118.136 219.864, 119.876 218.124 C 120.907 217.093, 124.083 209.251, 126.934 200.699 C 129.784 192.146, 132.726 184.642, 133.471 184.024 C 134.256 183.373, 137.491 183.026, 141.163 183.200 L 147.500 183.500 151.874 196 C 159.089 216.623, 159.299 217.156, 160.747 218.604 C 161.875 219.732, 167.496 220, 190 220 C 214.408 220, 218.059 219.798, 219.486 218.371 C 221.584 216.273, 232.901 193.712, 239.051 179.365 C 258.635 133.687, 261.794 94.162, 248.204 64.849 C 241.607 50.620, 231.761 38.687, 220.057 30.736 C 204.388 20.090, 185.338 12.729, 162.669 8.559 C 140.517 4.485, 122.734 3.494, 99.500 5.038 M 86.500 19.521 C 70.824 21.355, 57.879 23.736, 47.500 26.693 C 37.537 29.532, 26.621 34.578, 27.471 35.953 C 29.273 38.868, 70.989 44.640, 99.500 45.917 L 115.500 46.635 120 42.369 C 130.934 32.006, 144.293 31.253, 153.520 40.480 C 157.309 44.269, 160 50.172, 160 54.695 C 160 56.078, 161.512 57.366, 165.111 59.052 C 172.013 62.285, 177.352 68.558, 179.606 76.082 C 181.248 81.565, 182.048 82.619, 188.456 87.747 C 200.601 97.467, 202 99.021, 202 102.799 C 202 108.003, 194.920 122.132, 189.694 127.359 C 178.674 138.379, 165.242 140.299, 136 135.034 C 99.865 128.527, 76.009 128.286, 64.369 134.308 C 60.022 136.557, 56.263 141.318, 54.906 146.295 C 52.646 154.581, 57.539 174.492, 67.328 196.845 L 71.556 206.500 91.094 206.771 L 110.631 207.041 116.447 189.985 C 120.427 178.312, 122.922 172.467, 124.354 171.465 C 125.945 170.350, 129.747 170, 140.268 170 C 157.113 170, 157.154 170.028, 162.072 184.558 C 163.922 190.026, 166.351 197.200, 167.468 200.500 L 169.500 206.500 190.411 206.500 L 211.321 206.500 217.619 194 C 227.904 173.588, 234.130 157.441, 239.059 138.396 C 243.109 122.748, 244.218 100.214, 241.589 86.969 C 235.209 54.823, 207.396 31.323, 165.224 22.444 C 144.369 18.053, 109.960 16.776, 86.500 19.521 M 151.200 80.200 C 150.540 80.860, 150 82.345, 150 83.500 C 150 84.655, 150.540 86.140, 151.200 86.800 C 151.860 87.460, 153.345 88, 154.500 88 C 155.655 88, 157.140 87.460, 157.800 86.800 C 158.460 86.140, 159 84.655, 159 83.500 C 159 82.345, 158.460 80.860, 157.800 80.200 C 157.140 79.540, 155.655 79, 154.500 79 C 153.345 79, 151.860 79.540, 151.200 80.200" stroke="none" fill="#ffffff" fill-rule="evenodd"/>
</svg>